<?xml version="1.0" encoding="utf-8"?>
<!-- Generator: Adobe Illustrator 19.1.1, SVG Export Plug-In . SVG Version: 6.00 Build 0)  -->
<svg version="1.1" id="Layer_1" xmlns="http://www.w3.org/2000/svg" xmlns:xlink="http://www.w3.org/1999/xlink" x="0px" y="0px"
	 viewBox="0 0 1200 1200" enable-background="new 0 0 1200 1200" xml:space="preserve">
<g>
	<g>
		<path fill="#050766" d="M844.722,158.428L663.385,55.151c-3.636-2.07-7.928-2.556-11.926-1.419
			c-3.097-0.887-6.42-0.811-9.514,0.297c-4.272,1.532-7.648,4.841-9.265,9.08l-0.517,1.356l-199.95,22.505l-21.311-8.498
			c-3.463-1.936-7.581-2.279-11.322-0.938c-0.055,0.02-0.106,0.048-0.161,0.068c-2.24-0.349-4.554-0.157-6.739,0.627
			c-3.772,1.353-6.754,4.277-8.182,8.022l-37.026,97.074c-1.794,4.694-0.353,9.946,3.585,13.07l66.724,52.938l-12.011,237.21
			l-61.723,95.087c-3.461,5.332-4.377,11.879-2.509,17.959l25.576,83.26v341.719c0,0.579,0.319,1.109,0.831,1.379l7.418,3.925
			c0.209,0.11,0.441,0.157,0.671,0.166c0.019,0.001,0.036,0.014,0.055,0.014c0,0,0.002,0.001,0.003,0.001
			c0.186,0,0.36-0.076,0.536-0.142c0.079-0.029,0.166-0.021,0.24-0.063l14.299-8.186l22.681-12.982l198.88,89.981v42.153
			c0,0.579,0.319,1.109,0.831,1.379l8.519,4.507c0.228,0.12,0.479,0.181,0.729,0.181c0.26,0,0.518-0.065,0.754-0.195l0.017-0.009
			l0.004-0.001l0.051-0.029l234.973-129.618c0.498-0.274,0.806-0.796,0.806-1.365V183.702
			C859.412,173.274,853.784,163.59,844.722,158.428z"/>
		<path fill="#050766" d="M622.808,1150c-0.758,0-1.511-0.187-2.184-0.54l-8.523-4.51c-1.536-0.81-2.492-2.397-2.492-4.138v-40.14
			l-195.592-88.495l-35.598,20.376c-0.24,0.138-0.571,0.264-0.876,0.343c-0.41,0.148-1.174,0.368-1.997,0.225
			c-0.615-0.071-1.144-0.234-1.631-0.49l-7.428-3.928c-1.536-0.811-2.492-2.397-2.492-4.138v-341.25l-25.438-82.814
			c-2.141-6.963-1.093-14.463,2.874-20.573l61.266-94.384l11.887-234.769l-65.466-51.94c-5.009-3.974-6.841-10.656-4.56-16.629
			l37.026-97.072c1.753-4.597,5.413-8.186,10.043-9.847c2.375-0.852,4.952-1.152,7.487-0.875c4.475-1.389,9.149-0.926,13.124,1.23
			l20.404,8.136l197.291-22.205c2.001-4.89,5.974-8.696,10.961-10.485c3.407-1.221,7.042-1.42,10.569-0.583
			c4.613-1.086,9.358-0.407,13.467,1.931l181.337,103.279c10.035,5.715,16.267,16.438,16.267,27.985v831.961
			c0,1.704-0.928,3.274-2.421,4.097L625.14,1149.378C624.378,1149.799,623.596,1150,622.808,1150z M615.849,1139.874l6.943,3.673
			l233.5-128.806V183.702c0-9.309-5.025-17.955-13.114-22.563L661.841,57.861c-2.899-1.649-6.285-2.051-9.529-1.128
			c-0.559,0.157-1.154,0.157-1.712-0.002c-2.525-0.724-5.155-0.641-7.603,0.235c-3.413,1.223-6.11,3.868-7.402,7.255l-0.514,1.354
			c-0.416,1.092-1.408,1.86-2.568,1.991L432.562,90.069c-0.51,0.059-1.028-0.013-1.505-0.202l-21.31-8.499
			c-0.126-0.05-0.248-0.108-0.366-0.174c-2.675-1.495-5.864-1.759-8.749-0.725c-0.498,0.185-1.168,0.3-1.692,0.213
			c-1.769-0.273-3.569-0.109-5.206,0.481c-2.915,1.044-5.218,3.303-6.321,6.196l-37.026,97.074
			c-1.306,3.418-0.256,7.241,2.608,9.514l66.726,52.938c0.788,0.627,1.227,1.596,1.176,2.602L408.885,486.7
			c-0.028,0.548-0.199,1.078-0.5,1.54l-61.723,95.087c-2.958,4.558-3.74,10.15-2.143,15.344l25.576,83.26
			c0.091,0.297,0.138,0.605,0.138,0.916v340.781l5.83,3.083l36.236-20.741c0.869-0.496,1.922-0.55,2.836-0.134l198.879,89.982
			c1.117,0.504,1.834,1.617,1.834,2.842V1139.874z"/>
	</g>
	<g>
		<path fill="#FAC505" d="M344.52,598.669l25.645,83.486c0.047,0.15,0.069,0.305,0.069,0.459v341.012l4.294,2.272l-0.516-343.741
			l-25.578-83.262c-1.869-6.082-0.953-12.626,2.511-17.959l61.721-95.087l12.011-237.211l-66.724-52.938
			c-3.937-3.122-5.377-8.375-3.587-13.069l37.028-97.075c0.657-1.72,1.653-3.255,2.892-4.556c-0.184,0.055-0.37,0.099-0.552,0.164
			c-2.913,1.045-5.218,3.304-6.319,6.196l-37.028,97.075c-1.306,3.418-0.256,7.241,2.608,9.514l67.353,53.437
			c0.396,0.313,0.616,0.797,0.589,1.301l-12.072,238.431c-0.014,0.274-0.099,0.54-0.25,0.77l-61.952,95.438
			C343.705,587.883,342.925,593.475,344.52,598.669z"/>
		<path fill="#3676E6" d="M435.252,504.793l0.774,9.663l200.946,38.948c0.102,0.02,0.183,0.076,0.275,0.113l7.87-12.123
			L435.252,504.793z"/>
		<path fill="#3676E6" d="M612.729,748.267l-3.591-11.69c-0.143,0.022-0.292,0.019-0.441-0.024l-174.833-50.13
			c-1.816-0.52-3.727-0.169-5.241,0.971c-1.511,1.14-2.379,2.878-2.379,4.769v300.929c0,2.352,1.387,4.493,3.534,5.45l182.95,81.847
			V748.267z M518.918,768.697c0-1.136,0.524-2.175,1.436-2.852c0.912-0.676,2.06-0.875,3.148-0.546l27.969,8.499
			c1.513,0.461,2.547,1.885,2.517,3.465l-0.739,39.893c-0.02,1.105-0.54,2.119-1.424,2.779c-0.626,0.467-1.365,0.709-2.121,0.709
			c-0.317,0-0.636-0.043-0.951-0.128l-27.227-7.5c-1.536-0.425-2.608-1.832-2.608-3.425V768.697z M518.918,823.308
			c0-1.135,0.524-2.176,1.436-2.852c0.912-0.678,2.06-0.871,3.148-0.546l27.969,8.499c1.513,0.461,2.547,1.885,2.517,3.465
			l-0.741,14.962c-0.018,1.075-0.538,2.088-1.424,2.748c-0.624,0.465-1.363,0.709-2.116,0.709c-0.317,0-0.638-0.045-0.953-0.132
			l-27.227-7.497c-1.536-0.425-2.608-1.832-2.608-3.425V823.308z M475.39,756.814c0-1.272,0.585-2.434,1.607-3.191
			c1.02-0.756,2.303-0.975,3.518-0.607l28.003,8.509c1.69,0.512,2.848,2.104,2.815,3.874l-0.747,40.236
			c-0.024,1.235-0.605,2.366-1.595,3.106c-0.697,0.52-1.523,0.792-2.367,0.792c-0.355,0-0.713-0.049-1.064-0.144l-27.256-7.508
			c-1.717-0.473-2.915-2.047-2.915-3.829V756.814z M475.39,811.425c0-1.272,0.585-2.435,1.607-3.191
			c1.018-0.758,2.297-0.983,3.518-0.609l28.003,8.511c1.69,0.512,2.848,2.104,2.815,3.874l-0.75,15.306
			c-0.022,1.205-0.603,2.336-1.593,3.075c-0.697,0.52-1.523,0.792-2.369,0.792c-0.353,0-0.711-0.049-1.062-0.144l-27.256-7.508
			c-1.717-0.475-2.915-2.05-2.915-3.829V811.425z"/>
		<path fill="#FAC505" d="M612.729,1082.665l-183.799-82.224c-2.895-1.292-4.765-4.176-4.765-7.349V692.162
			c0-2.551,1.168-4.895,3.207-6.431c2.041-1.536,4.619-2.013,7.065-1.308l174.007,49.893l-3.829-12.465L415.841,668.11
			l-0.515,337.809l158.048,71.508l39.354,17.805V1082.665z"/>
		<path fill="#3676E6" d="M522.079,811.009l27.227,7.5c0.439,0.122,0.904,0.035,1.274-0.24c0.366-0.274,0.581-0.693,0.589-1.152
			l0.739-39.892c0.014-0.656-0.416-1.245-1.042-1.436l-27.969-8.499c-0.142-0.043-0.289-0.065-0.431-0.065
			c-0.311,0-0.616,0.099-0.873,0.291c-0.378,0.28-0.595,0.711-0.595,1.182v40.894C520.998,810.251,521.443,810.834,522.079,811.009z
			 M542.828,781.624c0-0.861,0.699-1.56,1.56-1.56c0.861,0,1.56,0.699,1.56,1.56v30.02c0,0.861-0.699,1.56-1.56,1.56
			c-0.861,0-1.56-0.699-1.56-1.56V781.624z M524.112,775.344c0-0.488,0.227-0.949,0.617-1.243c0.388-0.292,0.894-0.392,1.363-0.26
			l11.351,3.171c0.678,0.191,1.148,0.815,1.14,1.519l-0.343,31.623c-0.006,0.494-0.244,0.955-0.64,1.243
			c-0.27,0.199-0.593,0.301-0.92,0.301c-0.154,0-0.309-0.022-0.461-0.069l-11.008-3.4c-0.654-0.203-1.099-0.806-1.099-1.491V775.344
			z"/>
		<path fill="#3676E6" d="M522.079,840.658l27.227,7.5c0.437,0.124,0.904,0.037,1.272-0.238c0.137-0.102,0.229-0.241,0.321-0.379
			l-26.391-7.269c-1.536-0.424-2.608-1.832-2.608-3.425v-14.88c-0.106,0.045-0.212,0.089-0.307,0.16
			c-0.378,0.28-0.595,0.711-0.595,1.182v15.931C520.998,839.9,521.443,840.483,522.079,840.658z"/>
		<path fill="#FAC505" d="M394.549,582.664c0.4,1.202,1.381,2.078,2.62,2.34l193.038,40.98l7.658-11.797
			c-0.731-0.11-1.44-0.282-2.085-0.594c-1.597-0.772-2.714-2.133-3.149-3.829c-0.173-0.674-0.199-1.388-0.156-2.114
			c-0.14-0.293-0.261-0.597-0.344-0.921c-0.479-1.869,0.04-4.056,1.426-6c2.515-3.532,7.162-5.383,10.573-4.225
			c0.532,0.182,0.992,0.449,1.417,0.752c0.487,0.068,0.966,0.163,1.422,0.318c0.464,0.158,0.892,0.363,1.288,0.601l1.377-2.121
			c-0.498-0.629-0.871-1.356-1.079-2.167c-0.173-0.674-0.199-1.388-0.156-2.114c-0.139-0.293-0.261-0.597-0.344-0.921
			c-0.479-1.869,0.041-4.057,1.426-6c2.43-3.418,6.835-5.23,10.218-4.304l9.785-15.074L441.11,529.396
			c-1.243-0.244-2.509,0.205-3.329,1.148l-4.475,5.12c0.116,0.649,0.187,1.313,0.187,1.995c0,2.17-0.624,4.193-1.686,5.918
			l2.554,3.65c5.298-2.789,11.05-3.562,15.606-2.005c3.738,1.278,6.39,3.945,7.471,7.514c1.404,4.637,0.024,10.146-3.782,15.117
			c-4.871,6.36-12.535,10.158-19.32,10.161c-2.346,0-4.585-0.455-6.569-1.416c-3.079-1.489-5.237-4.111-6.074-7.382
			c-1.107-4.319,0.118-9.405,3.358-13.955c0.803-1.128,1.745-2.188,2.757-3.2l-2.511-3.517c-0.999,0.289-2.051,0.452-3.141,0.452
			c-0.162,0-0.32-0.017-0.481-0.024l-26.433,30.244C394.406,580.17,394.146,581.46,394.549,582.664z M470.819,587.212
			c-1.198,0-2.344-0.234-3.358-0.723c-1.597-0.774-2.714-2.135-3.149-3.831c-0.172-0.672-0.198-1.385-0.155-2.11
			c-0.141-0.294-0.263-0.601-0.346-0.927c-0.477-1.869,0.041-4.054,1.426-5.998c2.517-3.532,7.162-5.381,10.575-4.223
			c0.532,0.182,0.993,0.449,1.418,0.752c0.486,0.066,0.965,0.16,1.42,0.314c1.936,0.662,3.309,2.046,3.868,3.896
			c0.721,2.377,0.022,5.192-1.916,7.719C478.142,585.295,474.26,587.212,470.819,587.212z M489.735,590.716
			c-1.199,0-2.344-0.232-3.358-0.723c-1.597-0.772-2.714-2.131-3.149-3.827c-0.172-0.673-0.199-1.387-0.156-2.113
			c-0.14-0.294-0.262-0.599-0.345-0.924c-0.477-1.871,0.04-4.057,1.426-6.001c2.515-3.534,7.171-5.385,10.575-4.225
			c0.533,0.182,0.994,0.45,1.42,0.754c0.486,0.067,0.964,0.162,1.418,0.317c1.932,0.658,3.305,2.039,3.866,3.888
			c0.721,2.379,0.022,5.194-1.914,7.725C497.055,588.799,493.178,590.716,489.735,590.716z M590.005,605.681
			c-2.46,3.214-6.338,5.131-9.781,5.131c-1.199,0-2.344-0.232-3.358-0.723c-1.597-0.772-2.714-2.131-3.149-3.827
			c-0.172-0.673-0.199-1.387-0.156-2.113c-0.14-0.294-0.262-0.599-0.345-0.924c-0.477-1.871,0.041-4.057,1.426-6.001
			c2.515-3.534,7.167-5.383,10.575-4.225c0.531,0.182,0.991,0.448,1.415,0.751c0.486,0.067,0.965,0.161,1.42,0.316
			c1.936,0.662,3.309,2.044,3.87,3.894C592.641,600.338,591.943,603.152,590.005,605.681z M601.142,577.123
			c0.531,0.181,0.992,0.448,1.417,0.751c0.487,0.066,0.966,0.161,1.421,0.315c1.934,0.662,3.307,2.043,3.868,3.894
			c0.719,2.379,0.02,5.192-1.917,7.721c-2.46,3.214-6.338,5.131-9.781,5.131c-1.198,0-2.344-0.234-3.358-0.723
			c-1.597-0.772-2.714-2.131-3.148-3.827c-0.173-0.674-0.199-1.388-0.156-2.115c-0.14-0.293-0.262-0.598-0.346-0.922
			c-0.479-1.869,0.041-4.056,1.426-6.002C593.086,577.813,597.734,575.969,601.142,577.123z M571.654,577.842
			c2.515-3.532,7.16-5.383,10.573-4.225c0.532,0.182,0.993,0.449,1.418,0.753c0.487,0.067,0.966,0.162,1.422,0.318
			c1.932,0.658,3.305,2.041,3.866,3.89c0.721,2.379,0.022,5.194-1.915,7.723c-2.46,3.214-6.338,5.129-9.779,5.131
			c-1.198,0-2.344-0.234-3.36-0.725c-1.596-0.772-2.716-2.133-3.15-3.829c-0.173-0.674-0.199-1.388-0.156-2.114
			c-0.139-0.293-0.261-0.597-0.344-0.921C569.749,581.973,570.269,579.786,571.654,577.842z M531.559,549.92
			c6.252,0,11.339,5.086,11.339,11.339c0,2.171-0.624,4.194-1.687,5.919l2.553,3.65c5.298-2.786,11.051-3.558,15.606-2.007
			c3.737,1.278,6.392,3.945,7.471,7.512c1.406,4.638,0.026,10.148-3.78,15.119c-4.871,6.36-12.537,10.16-19.322,10.16
			c-2.346,0-4.585-0.453-6.567-1.414c-3.081-1.491-5.239-4.113-6.076-7.384c-1.105-4.319,0.12-9.405,3.36-13.955
			c0.802-1.127,1.744-2.188,2.755-3.2l-2.51-3.517c-0.999,0.289-2.051,0.453-3.142,0.453c-6.25,0-11.337-5.086-11.337-11.337
			C520.222,555.006,525.308,549.92,531.559,549.92z M520.346,581.368c0.721,2.379,0.022,5.194-1.916,7.723
			c-2.46,3.214-6.34,5.131-9.783,5.131c-1.199,0-2.342-0.232-3.358-0.723c-1.597-0.774-2.714-2.135-3.149-3.831
			c-0.172-0.673-0.198-1.387-0.155-2.112c-0.14-0.293-0.262-0.598-0.345-0.922c-0.479-1.869,0.041-4.056,1.426-6
			c2.515-3.532,7.162-5.381,10.573-4.225c0.532,0.182,0.993,0.449,1.418,0.753c0.487,0.067,0.966,0.162,1.422,0.318
			C518.412,578.136,519.785,579.52,520.346,581.368z M510.653,557.027c0.531,0.181,0.99,0.448,1.415,0.75
			c0.487,0.067,0.967,0.161,1.423,0.316c1.934,0.662,3.307,2.043,3.867,3.894c0.719,2.379,0.02,5.192-1.917,7.721
			c-2.46,3.214-6.338,5.131-9.781,5.131c-1.198,0-2.344-0.234-3.358-0.723c-1.597-0.772-2.714-2.131-3.149-3.827
			c-0.172-0.673-0.199-1.387-0.156-2.113c-0.14-0.294-0.263-0.6-0.346-0.926c-0.477-1.869,0.041-4.054,1.426-5.998
			C502.597,557.72,507.244,555.871,510.653,557.027z M491.74,553.525c0.529,0.18,0.988,0.446,1.411,0.747
			c0.488,0.068,0.969,0.163,1.426,0.32c1.932,0.658,3.305,2.041,3.866,3.89c0.721,2.379,0.022,5.194-1.915,7.723
			c-2.46,3.214-6.338,5.131-9.781,5.131c-1.198,0-2.344-0.232-3.358-0.723c-1.596-0.774-2.716-2.135-3.15-3.831
			c-0.172-0.673-0.198-1.387-0.155-2.112c-0.14-0.293-0.262-0.598-0.345-0.922c-0.479-1.869,0.041-4.057,1.426-6
			C483.681,554.212,488.327,552.351,491.74,553.525z M462.249,554.242c2.517-3.532,7.168-5.383,10.575-4.225
			c0.53,0.181,0.989,0.447,1.413,0.748c0.489,0.068,0.97,0.165,1.427,0.322c1.932,0.658,3.305,2.039,3.863,3.888
			c0.721,2.379,0.022,5.194-1.913,7.725c-2.462,3.211-6.34,5.129-9.783,5.129c-1.198,0-2.344-0.234-3.358-0.723
			c-1.596-0.772-2.714-2.131-3.149-3.827c-0.172-0.674-0.199-1.387-0.156-2.113c-0.14-0.294-0.262-0.6-0.346-0.926
			C460.346,558.372,460.864,556.186,462.249,554.242z"/>
		<path fill="#3676E6" d="M478.857,799.874l27.256,7.508c0.571,0.159,1.164,0.045,1.633-0.307c0.471-0.351,0.75-0.892,0.76-1.481
			l0.747-40.236c0.016-0.841-0.534-1.599-1.341-1.842l-28.003-8.509c-0.183-0.057-0.372-0.083-0.557-0.083
			c-0.398,0-0.788,0.126-1.119,0.372c-0.485,0.359-0.764,0.914-0.764,1.519v41.237C477.47,798.901,478.04,799.65,478.857,799.874z
			 M499.948,769.609c0-0.861,0.699-1.56,1.56-1.56c0.861,0,1.56,0.699,1.56,1.56v30.821c0,0.861-0.699,1.56-1.56,1.56
			c-0.861,0-1.56-0.699-1.56-1.56V769.609z M480.734,763.16c0-0.487,0.228-0.949,0.617-1.243c0.388-0.293,0.892-0.392,1.363-0.26
			l11.653,3.258c0.681,0.191,1.148,0.815,1.14,1.519l-0.353,32.464c-0.006,0.494-0.244,0.955-0.64,1.245
			c-0.27,0.197-0.593,0.299-0.92,0.299c-0.154,0-0.309-0.022-0.461-0.069l-11.3-3.492c-0.654-0.203-1.099-0.806-1.099-1.491V763.16z
			"/>
		<path fill="#3676E6" d="M424.715,568.441c0.613,2.399,2.139,4.249,4.41,5.348c6.348,3.067,16.445-0.516,22.052-7.835
			c3.189-4.162,4.384-8.653,3.275-12.316c-0.792-2.618-2.691-4.508-5.493-5.464c-3.665-1.249-8.356-0.623-12.799,1.625l1.947,2.783
			c2.006-0.646,3.998-0.72,5.676-0.146c1.871,0.638,3.201,1.976,3.744,3.768c0.697,2.299,0.022,5.019-1.85,7.461
			c-2.373,3.1-6.114,4.95-9.437,4.95c-1.158,0-2.265-0.226-3.246-0.699c-1.546-0.749-2.631-2.066-3.051-3.709
			c-0.545-2.133,0.052-4.636,1.635-6.868l-1.93-2.704c-0.744,0.779-1.447,1.583-2.052,2.434
			C424.886,560.87,423.838,565.014,424.715,568.441z"/>
		<path fill="#3676E6" d="M553.188,576.036c1.871,0.638,3.199,1.977,3.744,3.768c0.697,2.299,0.022,5.019-1.85,7.463
			c-2.372,3.1-6.116,4.948-9.439,4.948c-1.158,0-2.265-0.223-3.246-0.699c-1.546-0.75-2.631-2.068-3.049-3.711
			c-0.547-2.135,0.051-4.635,1.634-6.864l-1.931-2.705c-0.744,0.78-1.447,1.584-2.051,2.434c-2.708,3.801-3.756,7.944-2.88,11.371
			c0.615,2.401,2.139,4.249,4.412,5.35c6.348,3.069,16.447-0.518,22.052-7.837c3.189-4.164,4.381-8.653,3.272-12.318
			c-0.792-2.616-2.691-4.505-5.493-5.462c-3.66-1.249-8.353-0.622-12.799,1.626l1.947,2.783
			C549.514,575.536,551.51,575.46,553.188,576.036z"/>
		<path fill="#3676E6" d="M478.857,829.524l27.256,7.508c0.565,0.159,1.164,0.045,1.633-0.307c0.087-0.065,0.131-0.164,0.205-0.242
			l-26.666-7.345c-1.716-0.475-2.915-2.05-2.915-3.829v-15.475c-0.043,0.027-0.092,0.039-0.134,0.07
			c-0.488,0.362-0.766,0.916-0.766,1.521v16.277C477.47,828.549,478.04,829.299,478.857,829.524z"/>
		<path fill="#FAC505" d="M480.45,825.309c0,0.847,0.571,1.597,1.387,1.822l26.706,7.356l0.712-14.549
			c0.014-0.81-0.536-1.568-1.343-1.812l-27.463-8.347V825.309z"/>
		<path fill="#3676E6" d="M654.998,526.17l2.128-3.279l0.422-8.337l-188.162-30.302c-2.803-0.451-5.261-1.966-6.923-4.268
			c-1.661-2.299-2.326-5.109-1.871-7.91l29.466-182.072c0.859-5.317,5.574-9.139,10.945-8.911l167.993,7.352l0.525-10.358
			l-185.269-6.163l-34.564,219.254L654.998,526.17z"/>
		<path fill="#3676E6" d="M432.615,533.29l3.597-4.116c1.31-1.497,3.348-2.194,5.287-1.822l188.597,36.12
			c0.203,0.039,0.367,0.147,0.507,0.28l4.846-7.466l-200.27-38.817l-8.195,9.946C429.51,528.612,431.531,530.703,432.615,533.29z"/>
		<path fill="#3676E6" d="M656.836,239.057l-62.639-49.698c-4.443-3.524-6.067-9.452-4.048-14.749l0.413-1.083L375.48,186.309
			l83.979,53.846L656.836,239.057z"/>
		<polygon fill="#3676E6" points="669.679,274.969 670.931,250.24 660.742,242.156 462.328,243.259 483.674,268.782 		"/>
		<path fill="#3676E6" d="M584.681,634.899c0.45-0.935,0.942-1.854,1.515-2.737l2.798-4.31l-192.256-40.813
			c-1.97-0.418-3.526-1.808-4.164-3.717c-0.636-1.911-0.226-3.959,1.099-5.476l25.561-29.246c-2.524-0.675-4.699-2.196-6.207-4.245
			l-36.481,44.277L584.681,634.899z"/>
		<path fill="#3676E6" d="M646.651,538.492c0.102,0.018,0.185,0.073,0.278,0.109l6.219-9.581l-204.456-34.849
			c-0.4-0.068-0.73-0.291-0.961-0.588l-10.643,8.361L646.651,538.492z"/>
		<path fill="#3676E6" d="M603.522,718.295l-20.182-65.698c-1.5-4.883-1.39-10.021,0.171-14.76l-206.822-45.976l38.661,72.864
			L603.522,718.295z"/>
		<path fill="#3676E6" d="M400.634,80.469c-2.915,1.045-5.22,3.304-6.323,6.198l-37.028,97.074
			c-1.304,3.418-0.256,7.242,2.608,9.515l67.353,53.437c0.396,0.313,0.615,0.797,0.589,1.301l-12.072,238.432
			c-0.014,0.274-0.1,0.54-0.25,0.77l-61.95,95.438c-2.96,4.556-3.74,10.148-2.145,15.342l25.647,83.486
			c0.045,0.148,0.069,0.303,0.069,0.457l0.516,343.884l34.558-19.781l0.518-339.59l-40.378-76.098
			c-0.075-0.141-0.126-0.29-0.155-0.442c-0.004-0.019,0-0.04-0.003-0.059c-0.025-0.166-0.019-0.332,0.01-0.496
			c0.005-0.025-0.004-0.049,0.002-0.074c0.007-0.033,0.03-0.056,0.039-0.088c0.038-0.133,0.095-0.258,0.168-0.378
			c0.027-0.045,0.048-0.091,0.08-0.133c0.013-0.017,0.019-0.037,0.032-0.053l38.932-47.25c-0.404-1.162-0.634-2.405-0.634-3.702
			c0-6.252,5.086-11.339,11.339-11.339c0.539,0,1.066,0.051,1.586,0.124l9.219-11.189l-0.991-12.371
			c-0.041-0.52,0.181-1.028,0.593-1.351l14.077-11.062l34.635-219.698l-23.313-27.873l-88.2-56.552
			c-0.131-0.084-0.225-0.199-0.321-0.311c-0.028-0.032-0.07-0.046-0.095-0.081c-0.004-0.006-0.004-0.013-0.008-0.019
			c-0.138-0.194-0.22-0.413-0.259-0.644c-0.011-0.065-0.002-0.126-0.004-0.192c-0.008-0.171,0.01-0.337,0.06-0.506
			c0.012-0.04-0.001-0.081,0.014-0.12l32.306-84.276c2.415-6.298,8.08-10.68,14.782-11.434l9.41-1.059l-15.995-6.379
			c-0.067-0.027-0.132-0.058-0.195-0.094C406.761,79.705,403.547,79.423,400.634,80.469z"/>
		<path fill="#3676E6" d="M586.942,579.18c-0.095-0.316-0.23-0.606-0.395-0.874c0.374,1.892-0.191,4.032-1.681,5.977
			c-2.052,2.681-5.292,4.28-8.174,4.28c-1.01,0-1.976-0.197-2.832-0.611c-0.182-0.088-0.336-0.207-0.503-0.313
			c0.361,0.495,0.831,0.906,1.427,1.194c3.035,1.469,7.877-0.264,10.583-3.796C586.869,583.074,587.458,580.885,586.942,579.18z"/>
		<path fill="#3676E6" d="M572.243,583.326c0.217,0.855,0.762,1.513,1.572,1.905c2.407,1.164,6.283-0.232,8.452-3.059
			c1.195-1.562,1.666-3.295,1.26-4.635c-0.282-0.932-0.963-1.607-1.972-1.952c-2.549-0.861-6.226,0.685-8.206,3.463
			C572.319,580.493,571.916,582.053,572.243,583.326z"/>
		<path fill="#050766" d="M570.572,584.763c-0.043,0.726-0.017,1.44,0.156,2.114c0.435,1.696,1.554,3.057,3.15,3.829
			c1.016,0.492,2.161,0.725,3.36,0.725c3.441-0.002,7.319-1.917,9.779-5.131c1.938-2.529,2.636-5.344,1.915-7.723
			c-0.56-1.848-1.934-3.232-3.866-3.89c-0.456-0.156-0.935-0.25-1.422-0.318c-0.425-0.303-0.886-0.571-1.418-0.753
			c-3.413-1.158-8.058,0.693-10.573,4.225c-1.385,1.944-1.905,4.132-1.426,6C570.311,584.166,570.433,584.47,570.572,584.763z
			 M574.784,588.833c-0.596-0.288-1.067-0.699-1.427-1.194c0.167,0.105,0.321,0.224,0.503,0.313
			c0.855,0.414,1.822,0.611,2.832,0.611c2.882,0,6.122-1.599,8.174-4.28c1.491-1.945,2.056-4.085,1.681-5.977
			c0.164,0.268,0.299,0.558,0.395,0.874c0.516,1.704-0.073,3.894-1.574,5.856C582.662,588.569,577.819,590.302,574.784,588.833z
			 M573.348,579.048c1.98-2.779,5.657-4.325,8.206-3.463c1.01,0.345,1.69,1.02,1.972,1.952c0.406,1.341-0.065,3.073-1.26,4.635
			c-2.169,2.828-6.045,4.223-8.452,3.059c-0.81-0.392-1.355-1.05-1.572-1.905C571.916,582.053,572.319,580.493,573.348,579.048z"/>
		<path fill="#3676E6" d="M605.857,582.686c-0.096-0.316-0.232-0.607-0.397-0.876c0.377,1.892-0.188,4.033-1.679,5.977
			c-2.052,2.681-5.293,4.28-8.178,4.28c-1.01,0-1.974-0.195-2.83-0.609c-0.181-0.088-0.335-0.207-0.502-0.312
			c0.36,0.494,0.83,0.905,1.426,1.193c3.035,1.471,7.879-0.27,10.583-3.799C605.782,586.578,606.371,584.389,605.857,582.686z"/>
		<path fill="#3676E6" d="M591.157,586.832c0.219,0.853,0.764,1.511,1.574,1.903c2.417,1.174,6.281-0.229,8.448-3.059
			c1.196-1.562,1.67-3.295,1.263-4.635c-0.282-0.932-0.965-1.605-1.97-1.948c-0.479-0.164-0.999-0.242-1.542-0.242
			c-2.332,0-5.062,1.446-6.669,3.701C591.234,583.999,590.83,585.559,591.157,586.832z"/>
		<path fill="#050766" d="M589.142,587.348c0.083,0.324,0.206,0.629,0.346,0.922c-0.043,0.726-0.017,1.441,0.156,2.115
			c0.435,1.696,1.552,3.055,3.148,3.827c1.014,0.489,2.159,0.723,3.358,0.723c3.443,0,7.321-1.918,9.781-5.131
			c1.938-2.529,2.637-5.342,1.917-7.721c-0.56-1.851-1.934-3.232-3.868-3.894c-0.455-0.155-0.934-0.249-1.421-0.315
			c-0.425-0.303-0.885-0.57-1.417-0.751c-3.409-1.154-8.056,0.691-10.575,4.223C589.182,583.292,588.662,585.48,589.142,587.348z
			 M593.698,592.339c-0.596-0.288-1.066-0.699-1.426-1.193c0.167,0.105,0.32,0.224,0.502,0.312c0.855,0.414,1.82,0.609,2.83,0.609
			c2.885,0,6.126-1.599,8.178-4.28c1.491-1.943,2.056-4.084,1.679-5.977c0.165,0.269,0.3,0.56,0.397,0.876
			c0.514,1.702-0.075,3.892-1.576,5.854C601.577,592.069,596.732,593.81,593.698,592.339z M592.262,582.552
			c1.607-2.255,4.337-3.701,6.669-3.701c0.542,0,1.062,0.077,1.542,0.242c1.005,0.343,1.688,1.016,1.97,1.948
			c0.406,1.341-0.067,3.073-1.263,4.635c-2.167,2.83-6.031,4.233-8.448,3.059c-0.81-0.392-1.355-1.05-1.574-1.903
			C590.83,585.559,591.234,583.999,592.262,582.552z"/>
		<path fill="#3676E6" d="M618.494,582.406c-2.464-0.311-5.558,1.179-7.317,3.652c-1.03,1.444-1.432,3.004-1.105,4.278
			c0.217,0.855,0.762,1.513,1.572,1.905c0.12,0.058,0.257,0.081,0.383,0.126L618.494,582.406z"/>
		<path fill="#3676E6" d="M589.93,598.563c-0.095-0.316-0.23-0.606-0.394-0.875c0.376,1.891-0.191,4.032-1.681,5.975
			c-2.052,2.681-5.292,4.28-8.174,4.28c-1.011,0-1.976-0.195-2.832-0.609c-0.181-0.088-0.335-0.206-0.502-0.311
			c0.36,0.494,0.83,0.905,1.426,1.193c3.039,1.471,7.881-0.272,10.583-3.798C589.857,602.455,590.446,600.267,589.93,598.563z"/>
		<path fill="#050766" d="M588.053,594.066c-0.455-0.155-0.934-0.249-1.42-0.316c-0.424-0.302-0.884-0.569-1.415-0.751
			c-3.408-1.158-8.06,0.691-10.575,4.225c-1.385,1.944-1.903,4.13-1.426,6.001c0.083,0.325,0.205,0.63,0.345,0.924
			c-0.043,0.726-0.016,1.44,0.156,2.113c0.435,1.696,1.552,3.055,3.149,3.827c1.013,0.491,2.159,0.723,3.358,0.723
			c3.443,0,7.321-1.918,9.781-5.131c1.938-2.529,2.637-5.342,1.918-7.721C591.362,596.109,589.989,594.728,588.053,594.066z
			 M577.773,608.216c-0.596-0.288-1.066-0.699-1.426-1.193c0.166,0.105,0.32,0.224,0.502,0.311c0.855,0.414,1.82,0.609,2.832,0.609
			c2.882,0,6.122-1.599,8.174-4.28c1.491-1.943,2.058-4.084,1.681-5.975c0.164,0.268,0.299,0.559,0.394,0.875
			c0.516,1.704-0.073,3.892-1.574,5.854C585.654,607.943,580.811,609.686,577.773,608.216z M576.336,598.431
			c1.979-2.781,5.657-4.331,8.208-3.463c1.008,0.345,1.69,1.02,1.972,1.95c0.406,1.341-0.067,3.073-1.261,4.635
			c-2.167,2.826-6.039,4.229-8.452,3.061c-0.811-0.392-1.353-1.052-1.572-1.905C574.904,601.433,575.309,599.875,576.336,598.431z"
			/>
		<path fill="#3676E6" d="M575.231,602.709c0.219,0.853,0.762,1.513,1.572,1.905c2.413,1.168,6.285-0.236,8.452-3.061
			c1.194-1.562,1.668-3.295,1.261-4.635c-0.282-0.93-0.965-1.605-1.972-1.95c-2.551-0.867-6.23,0.682-8.208,3.463
			C575.309,599.875,574.904,601.433,575.231,602.709z"/>
		<path fill="#3676E6" d="M598.593,611.447c-1.012,0-1.977-0.195-2.832-0.609c-0.181-0.088-0.335-0.206-0.501-0.312
			c0.36,0.495,0.83,0.905,1.426,1.193c0.729,0.352,1.566,0.51,2.448,0.513l0.558-0.859
			C599.322,611.422,598.955,611.447,598.593,611.447z"/>
		<path fill="#3676E6" d="M594.147,606.213c0.217,0.855,0.762,1.513,1.572,1.905c2.026,0.979,5.06,0.137,7.267-1.82l2.43-3.744
			c0.19-0.758,0.208-1.49,0.014-2.13c-0.282-0.932-0.963-1.607-1.972-1.952c-2.549-0.861-6.226,0.685-8.206,3.463
			C594.222,603.379,593.82,604.939,594.147,606.213z"/>
		<path fill="#3676E6" d="M541.362,587.291c0.27,1.054,0.94,1.869,1.94,2.352c2.897,1.399,7.538-0.262,10.13-3.64
			c1.436-1.879,2.001-3.971,1.509-5.596c-0.349-1.15-1.188-1.98-2.425-2.403c-1.089-0.375-2.393-0.372-3.755-0.032l1.858,2.656
			c0.65,0.811,0.955,1.936,0.794,3.033s-0.774,2.088-1.684,2.72c-0.68,0.473-1.469,0.719-2.279,0.719
			c-0.264,0-0.528-0.027-0.794-0.079c-1.081-0.215-2.003-0.845-2.6-1.771l-1.759-2.465
			C541.378,584.33,541.015,585.938,541.362,587.291z"/>
		<path fill="#3676E6" d="M531.559,569.475c4.532,0,8.219-3.687,8.219-8.217c0-4.532-3.687-8.219-8.219-8.219
			c-4.53,0-8.217,3.687-8.217,8.219C523.342,565.788,527.029,569.475,531.559,569.475z"/>
		<path fill="#050766" d="M531.559,572.595c1.091,0,2.143-0.164,3.142-0.453l2.51,3.517c-1.011,1.012-1.954,2.073-2.755,3.2
			c-3.24,4.55-4.465,9.636-3.36,13.955c0.837,3.27,2.994,5.893,6.076,7.384c1.982,0.961,4.221,1.414,6.567,1.414
			c6.785,0,14.451-3.801,19.322-10.16c3.807-4.971,5.186-10.482,3.78-15.119c-1.079-3.567-3.734-6.234-7.471-7.512
			c-4.555-1.55-10.308-0.779-15.606,2.007l-2.553-3.65c1.063-1.726,1.687-3.749,1.687-5.919c0-6.252-5.086-11.339-11.339-11.339
			c-6.25,0-11.337,5.086-11.337,11.339C520.222,567.509,525.308,572.595,531.559,572.595z M531.559,553.04
			c4.532,0,8.219,3.687,8.219,8.219c0,4.53-3.687,8.217-8.219,8.217c-4.53,0-8.217-3.687-8.217-8.217
			C523.342,556.727,527.029,553.04,531.559,553.04z M544.055,585.25c0.597,0.926,1.519,1.556,2.6,1.771
			c0.266,0.053,0.53,0.079,0.794,0.079c0.81,0,1.599-0.246,2.279-0.719c0.91-0.632,1.523-1.623,1.684-2.72s-0.144-2.222-0.794-3.033
			l-1.858-2.656c1.361-0.34,2.666-0.344,3.755,0.032c1.237,0.423,2.076,1.253,2.425,2.403c0.492,1.625-0.073,3.717-1.509,5.596
			c-2.592,3.378-7.233,5.04-10.13,3.64c-0.999-0.483-1.67-1.298-1.94-2.352c-0.347-1.354,0.017-2.962,0.934-4.507L544.055,585.25z
			 M558.362,571.774c2.801,0.957,4.7,2.846,5.493,5.462c1.109,3.664-0.083,8.154-3.272,12.318
			c-5.604,7.319-15.704,10.906-22.052,7.837c-2.273-1.101-3.796-2.949-4.412-5.35c-0.875-3.427,0.173-7.57,2.88-11.371
			c0.604-0.849,1.307-1.654,2.051-2.434l1.931,2.705c-1.583,2.229-2.181,4.729-1.634,6.864c0.418,1.643,1.503,2.962,3.049,3.711
			c0.981,0.475,2.088,0.699,3.246,0.699c3.323,0,7.067-1.848,9.439-4.948c1.873-2.444,2.547-5.164,1.85-7.463
			c-0.544-1.792-1.873-3.13-3.744-3.768c-1.678-0.576-3.674-0.5-5.678,0.148l-1.947-2.783
			C550.008,571.153,554.701,570.525,558.362,571.774z"/>
		<path fill="#FAC505" d="M500.915,283.169c-4.416-0.171-8.111,2.893-8.804,7.166l-29.466,182.072
			c-0.364,2.253,0.171,4.509,1.505,6.36c1.337,1.851,3.313,3.069,5.566,3.433l187.938,30.266l1.749-34.542
			c-2.073,7.896-9.565,13.825-17.511,13.825c-0.359,0-0.719-0.012-1.081-0.037h-0.002c-65.554-4.633-112.625-11.024-152.625-20.721
			c-6.981-1.712-12.102-9.643-11.416-17.676c4.544-52.04,12.509-93.878,23.067-140.687c1.664-7.32,8.676-13.577,15.631-13.952
			c47.065-2.412,98.357-0.867,148.331,4.475c1.572,0.171,2.996,0.589,4.392,1.234l0.702-13.865L500.915,283.169z"/>
		<path fill="#3676E6" d="M416.584,91.867c-5.539,0.625-10.221,4.245-12.218,9.452l-31.44,82.016l218.856-13.004l39.13-102.587
			L416.584,91.867z M618.894,82.487c1.186,1.531,1.483,3.526,0.792,5.337l-26.588,69.697c-0.77,2.019-2.661,3.406-4.818,3.535
			l-192.119,10.999c-0.11,0.007-0.221,0.01-0.331,0.01c-1.751,0-3.39-0.827-4.436-2.254c-1.109-1.516-1.371-3.47-0.699-5.225
			l22.897-59.734c0.67-1.745,2.24-2.96,4.097-3.169l196.24-21.298C615.849,80.177,617.71,80.956,618.894,82.487z"/>
		<path fill="#FAC505" d="M417.916,103.753c-1.077,0.121-1.993,0.829-2.383,1.847l-22.897,59.733
			c-0.418,1.092-0.256,2.308,0.435,3.251c0.693,0.944,1.763,1.453,2.97,1.396l192.119-10.999c1.339-0.08,2.517-0.944,2.996-2.201
			l26.588-69.697c0.429-1.127,0.244-2.368-0.494-3.322c-0.737-0.952-1.881-1.438-3.094-1.305L417.916,103.753z"/>
		<path fill="#050766" d="M417.689,101.685c-1.857,0.209-3.427,1.424-4.097,3.169l-22.897,59.734
			c-0.672,1.755-0.41,3.708,0.699,5.225c1.046,1.427,2.685,2.254,4.436,2.254c0.11,0,0.221-0.003,0.331-0.01l192.119-10.999
			c2.157-0.129,4.048-1.516,4.818-3.535l26.588-69.697c0.691-1.811,0.394-3.807-0.792-5.337c-1.184-1.531-3.045-2.31-4.964-2.099
			L417.689,101.685z M617.25,83.76c0.737,0.954,0.922,2.195,0.494,3.322l-26.588,69.697c-0.479,1.257-1.658,2.121-2.996,2.201
			L396.041,169.98c-1.207,0.057-2.277-0.453-2.97-1.396c-0.691-0.944-0.853-2.159-0.435-3.251l22.897-59.733
			c0.39-1.018,1.306-1.726,2.383-1.847l196.24-21.298C615.37,82.322,616.513,82.809,617.25,83.76z"/>
		<path fill="#3676E6" d="M593.066,175.723c-1.534,4.02-0.301,8.518,3.069,11.193l76.937,61.041h3.5l-73.856-58.597
			c-4.442-3.524-6.067-9.452-4.048-14.749l42.531-111.502c1.047-2.745,2.839-5.089,5.127-6.824
			c-1.125,0.078-2.245,0.293-3.329,0.681c-3.411,1.224-6.11,3.868-7.4,7.254L593.066,175.723z"/>
		<polygon fill="#3676E6" points="621.248,749.593 615.849,749.593 615.849,1097.688 615.849,1097.693 615.849,1139.872 
			621.248,1142.729 		"/>
		<path fill="#3676E6" d="M659.511,524.949l-70.698,108.911c-3.435,5.294-4.343,11.788-2.49,17.82l29.119,94.792h5.255
			l-28.838-93.876c-2.125-6.918-1.083-14.365,2.856-20.435l69.595-107.213H659.511z"/>
		<polygon fill="#3676E6" points="660.305,521.829 665.7,521.829 679.408,251.077 674.013,251.077 		"/>
		<path fill="#FAC505" d="M843.178,161.14L661.841,57.862c-1.893-1.078-4.008-1.627-6.135-1.627c-1.412,0-2.83,0.242-4.19,0.73
			c-3.411,1.224-6.11,3.868-7.4,7.254l-42.531,111.503c-1.534,4.02-0.301,8.518,3.069,11.193l77.363,61.379
			c0.021,0.016,0.027,0.043,0.047,0.06c0.141,0.124,0.254,0.271,0.343,0.439c0.019,0.035,0.05,0.061,0.066,0.098
			c0.085,0.192,0.135,0.402,0.135,0.625c0,0.015-0.008,0.028-0.009,0.043c0,0.013,0.007,0.023,0.007,0.036l-13.865,273.872
			c-0.002,0.041-0.032,0.074-0.037,0.114c-0.026,0.203-0.085,0.388-0.181,0.559c-0.017,0.03-0.013,0.068-0.031,0.097l-71.16,109.622
			c-3.435,5.294-4.343,11.788-2.49,17.82l29.458,95.893c0.047,0.15,0.069,0.305,0.069,0.459v394.644l231.924-127.934V183.702
			C856.292,174.393,851.267,165.747,843.178,161.14z M638.408,746.597c0-0.605-0.089-1.203-0.264-1.771l-29.882-97.27
			c-0.63-2.047-0.321-4.253,0.847-6.049l72.557-111.78c0.579-0.892,0.912-1.922,0.967-2.98l14.245-281.357
			c0.097-1.942-0.754-3.824-2.277-5.034l-74.14-58.823c-2.789-2.21-3.809-5.928-2.539-9.252l35.257-92.426
			c0.845-2.216,2.608-3.946,4.841-4.747c2.236-0.797,4.696-0.587,6.758,0.587l171.451,97.645c3.715,2.116,6.023,6.088,6.023,10.363
			v817.959c0,2.956-1.609,5.679-4.197,7.107l-187.609,103.49c-1.233,0.683-2.58,1.022-3.923,1.022c-1.422,0-2.84-0.38-4.125-1.14
			c-2.499-1.475-3.99-4.087-3.99-6.988V746.597z"/>
		<path fill="#050766" d="M844.722,158.428L663.385,55.151c-3.636-2.07-7.928-2.556-11.926-1.419
			c-3.097-0.887-6.42-0.811-9.514,0.297c-4.272,1.532-7.648,4.841-9.265,9.08l-0.517,1.356l-199.95,22.505l-21.311-8.498
			c-3.463-1.936-7.581-2.279-11.322-0.938c-0.055,0.02-0.106,0.048-0.161,0.068c-2.24-0.349-4.554-0.157-6.739,0.627
			c-3.772,1.353-6.754,4.277-8.182,8.022l-37.026,97.074c-1.794,4.694-0.353,9.946,3.585,13.07l66.724,52.938l-12.011,237.21
			l-61.723,95.087c-3.461,5.332-4.377,11.879-2.509,17.959l25.576,83.26v341.719c0,0.579,0.319,1.109,0.831,1.379l7.418,3.925
			c0.209,0.11,0.441,0.157,0.671,0.166c0.019,0.001,0.036,0.014,0.055,0.014c0,0,0.002,0.001,0.003,0.001
			c0.186,0,0.36-0.076,0.536-0.142c0.079-0.029,0.166-0.021,0.24-0.063l14.299-8.186l22.681-12.982l198.88,89.981v42.153
			c0,0.579,0.319,1.109,0.831,1.379l8.519,4.507c0.228,0.12,0.479,0.181,0.729,0.181c0.26,0,0.518-0.065,0.754-0.195l0.017-0.009
			l0.004-0.001l0.051-0.029l234.973-129.618c0.498-0.274,0.806-0.796,0.806-1.365V183.702
			C859.412,173.274,853.784,163.59,844.722,158.428z M856.292,1014.743l-231.924,127.934V748.033c0-0.154-0.022-0.309-0.069-0.459
			l-29.458-95.893c-1.852-6.033-0.944-12.527,2.49-17.82l71.16-109.622c0.019-0.029,0.015-0.067,0.031-0.097
			c0.096-0.17,0.155-0.356,0.181-0.559c0.005-0.04,0.035-0.073,0.037-0.114l13.865-273.872c0-0.012-0.007-0.023-0.007-0.036
			c0-0.015,0.009-0.028,0.009-0.043c0-0.223-0.05-0.433-0.135-0.625c-0.016-0.037-0.047-0.063-0.066-0.098
			c-0.09-0.167-0.202-0.315-0.343-0.439c-0.02-0.017-0.027-0.044-0.047-0.06l-77.363-61.379c-3.37-2.675-4.603-7.173-3.069-11.193
			l42.531-111.503c1.29-3.386,3.989-6.03,7.4-7.254c1.361-0.488,2.779-0.73,4.19-0.73c2.127,0,4.241,0.548,6.135,1.627
			L843.178,161.14c8.089,4.607,13.114,13.253,13.114,22.562V1014.743z M408.865,487.119l12.072-238.431
			c0.027-0.504-0.193-0.988-0.589-1.301l-67.353-53.437c-2.864-2.274-3.914-6.097-2.608-9.514l37.028-97.075
			c1.101-2.893,3.407-5.151,6.319-6.196c0.182-0.065,0.368-0.11,0.552-0.164c-1.238,1.301-2.235,2.836-2.892,4.556l-37.028,97.075
			c-1.79,4.694-0.349,9.947,3.587,13.069l66.724,52.938l-12.011,237.211l-61.721,95.087c-3.463,5.332-4.38,11.877-2.511,17.959
			l25.578,83.262l0.516,343.741l-4.294-2.272V682.614c0-0.154-0.022-0.309-0.069-0.459l-25.645-83.486
			c-1.595-5.194-0.815-10.786,2.143-15.342l61.952-95.438C408.766,487.659,408.851,487.393,408.865,487.119z M409.454,81.236
			c0.063,0.036,0.128,0.067,0.195,0.094l15.995,6.379l-9.41,1.059c-6.701,0.755-12.367,5.136-14.782,11.434l-32.306,84.276
			c-0.015,0.039-0.003,0.081-0.014,0.12c-0.05,0.168-0.067,0.334-0.06,0.506c0.003,0.066-0.007,0.127,0.004,0.192
			c0.039,0.231,0.121,0.45,0.259,0.644c0.004,0.006,0.004,0.013,0.008,0.019c0.025,0.035,0.067,0.049,0.095,0.081
			c0.096,0.112,0.19,0.227,0.321,0.311l88.2,56.552l23.313,27.873l-34.635,219.698l-14.077,11.062
			c-0.412,0.323-0.634,0.831-0.593,1.351l0.991,12.371l-9.219,11.189c-0.52-0.073-1.046-0.124-1.586-0.124
			c-6.252,0-11.339,5.086-11.339,11.339c0,1.298,0.23,2.54,0.634,3.702l-38.932,47.25c-0.013,0.016-0.019,0.036-0.032,0.053
			c-0.032,0.041-0.052,0.088-0.08,0.133c-0.073,0.12-0.13,0.245-0.168,0.378c-0.009,0.032-0.032,0.055-0.039,0.088
			c-0.006,0.025,0.003,0.049-0.002,0.074c-0.028,0.164-0.035,0.33-0.01,0.496c0.003,0.02-0.001,0.04,0.003,0.059
			c0.029,0.152,0.079,0.301,0.155,0.442l40.378,76.098l-0.518,339.59l-34.558,19.781l-0.516-343.884
			c0-0.154-0.024-0.309-0.069-0.457l-25.647-83.486c-1.595-5.194-0.814-10.786,2.145-15.342l61.95-95.438
			c0.15-0.229,0.236-0.496,0.25-0.77l12.072-238.432c0.026-0.504-0.193-0.988-0.589-1.301l-67.353-53.437
			c-2.864-2.273-3.912-6.097-2.608-9.515l37.028-97.074c1.103-2.894,3.408-5.152,6.323-6.198
			C403.547,79.423,406.761,79.705,409.454,81.236z M642.997,56.965c1.084-0.389,2.204-0.603,3.329-0.681
			c-2.288,1.735-4.08,4.079-5.127,6.824L598.668,174.61c-2.019,5.298-0.394,11.225,4.048,14.749l73.856,58.597h-3.5l-76.937-61.041
			c-3.37-2.675-4.603-7.173-3.069-11.193l42.531-111.503C636.887,60.833,639.586,58.189,642.997,56.965z M679.408,251.077
			L665.7,521.829h-5.394l13.707-270.752H679.408z M594.715,632.162c-3.939,6.07-4.981,13.516-2.856,20.435l28.838,93.876h-5.255
			l-29.119-94.792c-1.853-6.033-0.945-12.527,2.49-17.82l70.698-108.911h4.799L594.715,632.162z M429.779,998.541
			c-2.147-0.957-3.534-3.098-3.534-5.45V692.162c0-1.891,0.867-3.63,2.379-4.769c1.513-1.14,3.425-1.491,5.241-0.971l174.833,50.13
			c0.149,0.043,0.298,0.046,0.441,0.024l3.591,11.69v332.121L429.779,998.541z M413.937,537.659c0-4.532,3.687-8.219,8.219-8.219
			c4.53,0,8.217,3.687,8.217,8.219c0,4.53-3.687,8.217-8.217,8.217C417.624,545.876,413.937,542.189,413.937,537.659z
			 M434.652,561.648c0.593,0.928,1.515,1.556,2.596,1.771c0.266,0.055,0.532,0.081,0.796,0.081c0.81,0,1.599-0.246,2.281-0.721
			c0.91-0.632,1.523-1.625,1.684-2.72c0.16-1.097-0.144-2.22-0.794-3.035l-1.857-2.654c1.358-0.338,2.663-0.342,3.752,0.033
			c1.237,0.422,2.076,1.253,2.425,2.403c0.492,1.627-0.073,3.717-1.511,5.594c-2.588,3.378-7.223,5.048-10.126,3.642
			c-0.999-0.483-1.672-1.298-1.942-2.352c-0.345-1.354,0.018-2.962,0.936-4.508L434.652,561.648z M431.576,557.34
			c-1.583,2.232-2.18,4.734-1.635,6.868c0.421,1.643,1.505,2.96,3.051,3.709c0.981,0.473,2.088,0.699,3.246,0.699
			c3.323,0,7.065-1.85,9.437-4.95c1.873-2.442,2.547-5.161,1.85-7.461c-0.542-1.792-1.873-3.13-3.744-3.768
			c-1.677-0.574-3.67-0.499-5.676,0.146l-1.947-2.783c4.442-2.248,9.134-2.873,12.799-1.625c2.801,0.957,4.7,2.846,5.493,5.464
			c1.109,3.662-0.085,8.154-3.275,12.316c-5.606,7.319-15.704,10.902-22.052,7.835c-2.271-1.099-3.796-2.949-4.41-5.348
			c-0.878-3.427,0.171-7.571,2.878-11.371c0.605-0.851,1.308-1.655,2.052-2.434L431.576,557.34z M422.156,548.996
			c1.09,0,2.142-0.163,3.141-0.452l2.511,3.517c-1.012,1.012-1.954,2.072-2.757,3.2c-3.24,4.55-4.465,9.636-3.358,13.955
			c0.837,3.27,2.994,5.893,6.074,7.382c1.984,0.961,4.223,1.416,6.569,1.416c6.785-0.002,14.449-3.801,19.32-10.161
			c3.806-4.971,5.186-10.479,3.782-15.117c-1.081-3.569-3.734-6.236-7.471-7.514c-4.556-1.556-10.308-0.783-15.606,2.005
			l-2.554-3.65c1.062-1.725,1.686-3.748,1.686-5.918c0-0.682-0.071-1.346-0.187-1.995l4.475-5.12
			c0.821-0.943,2.086-1.391,3.329-1.148l188.376,36.078l-9.785,15.074c-3.383-0.926-7.787,0.886-10.218,4.304
			c-1.385,1.944-1.905,4.132-1.426,6c0.083,0.324,0.205,0.628,0.344,0.921c-0.043,0.726-0.017,1.44,0.156,2.114
			c0.208,0.811,0.581,1.537,1.079,2.167l-1.377,2.121c-0.396-0.238-0.824-0.443-1.288-0.601c-0.456-0.156-0.935-0.251-1.422-0.318
			c-0.425-0.303-0.885-0.57-1.417-0.752c-3.411-1.158-8.058,0.693-10.573,4.225c-1.385,1.944-1.905,4.132-1.426,6
			c0.083,0.324,0.205,0.628,0.344,0.921c-0.043,0.726-0.017,1.44,0.156,2.114c0.435,1.696,1.552,3.057,3.149,3.829
			c0.645,0.312,1.354,0.484,2.085,0.594l-7.658,11.797l-193.038-40.98c-1.239-0.262-2.22-1.138-2.62-2.34
			c-0.402-1.205-0.142-2.494,0.693-3.449l26.433-30.244C421.835,548.978,421.993,548.996,422.156,548.996z M636.972,553.404
			l-200.946-38.948l-0.774-9.663l209.865,36.6l-7.87,12.123C637.155,553.479,637.074,553.423,636.972,553.404z M668.19,304.386
			c-1.396-0.644-2.821-1.062-4.392-1.234c-49.974-5.342-101.266-6.887-148.331-4.475c-6.955,0.375-13.967,6.632-15.631,13.952
			c-10.559,46.809-18.523,88.647-23.067,140.687c-0.687,8.034,4.434,15.964,11.416,17.676c40,9.697,87.071,16.088,152.625,20.721
			h0.002c0.361,0.024,0.721,0.037,1.081,0.037c7.946,0,15.438-5.929,17.511-13.825l-1.749,34.542l-187.938-30.266
			c-2.253-0.364-4.229-1.582-5.566-3.433c-1.335-1.85-1.869-4.107-1.505-6.36l29.466-182.072c0.693-4.274,4.388-7.337,8.804-7.166
			l167.977,7.352L668.19,304.386z M599.133,612.232c-0.882-0.003-1.718-0.16-2.448-0.513c-0.596-0.288-1.066-0.698-1.426-1.193
			c0.166,0.105,0.32,0.224,0.501,0.312c0.855,0.414,1.82,0.609,2.832,0.609c0.361,0,0.728-0.025,1.098-0.074L599.133,612.232z
			 M595.252,601.935c1.981-2.779,5.657-4.325,8.206-3.463c1.009,0.345,1.69,1.02,1.972,1.952c0.194,0.64,0.175,1.372-0.014,2.13
			l-2.43,3.744c-2.207,1.957-5.241,2.799-7.267,1.82c-0.811-0.392-1.355-1.05-1.572-1.905
			C593.82,604.939,594.222,603.379,595.252,601.935z M612.028,592.368c-0.126-0.045-0.264-0.069-0.383-0.126
			c-0.81-0.392-1.355-1.05-1.572-1.905c-0.327-1.274,0.075-2.834,1.105-4.278c1.76-2.473,4.853-3.963,7.317-3.652L612.028,592.368z
			 M590.562,173.528l-0.413,1.083c-2.019,5.298-0.394,11.225,4.048,14.749l62.639,49.698l-197.377,1.097l-83.979-53.846
			L590.562,173.528z M660.742,242.156l10.19,8.085l-1.252,24.729l-186.005-6.188l-21.347-25.523L660.742,242.156z M484.253,271.922
			l185.269,6.163l-0.525,10.358l-167.993-7.352c-5.371-0.227-10.085,3.594-10.945,8.911l-29.466,182.072
			c-0.455,2.801,0.209,5.61,1.871,7.91c1.662,2.302,4.12,3.817,6.923,4.268l188.162,30.302l-0.422,8.337l-2.128,3.279
			l-205.31-34.994L484.253,271.922z M447.731,493.583c0.231,0.297,0.561,0.521,0.961,0.588l204.456,34.849l-6.219,9.581
			c-0.093-0.036-0.176-0.091-0.278-0.109l-209.563-36.548L447.731,493.583z M435.179,517.47l200.27,38.817l-4.846,7.466
			c-0.139-0.133-0.303-0.241-0.507-0.28L441.5,527.352c-1.94-0.372-3.977,0.325-5.287,1.822l-3.597,4.116
			c-1.084-2.587-3.105-4.678-5.631-5.875L435.179,517.47z M419.234,548.6l-25.561,29.246c-1.324,1.517-1.735,3.565-1.099,5.476
			c0.638,1.909,2.194,3.299,4.164,3.717l192.256,40.813l-2.798,4.31c-0.573,0.883-1.065,1.802-1.515,2.737l-208.135-46.268
			l36.481-44.277C414.535,546.404,416.71,547.925,419.234,548.6z M583.511,637.837c-1.561,4.74-1.67,9.877-0.171,14.76
			l20.182,65.698l-188.172-53.57l-38.661-72.864L583.511,637.837z M415.327,1005.919l0.515-337.809l188.773,53.741l3.829,12.465
			l-174.007-49.893c-2.446-0.705-5.023-0.228-7.065,1.308c-2.039,1.536-3.207,3.88-3.207,6.431v300.929
			c0,3.173,1.871,6.057,4.765,7.349l183.799,82.224v12.568l-39.354-17.805L415.327,1005.919z M615.849,1097.693
			c0-0.002,0-0.003,0-0.005V749.593h5.399v393.136l-5.399-2.857V1097.693z M591.782,170.331l-218.856,13.004l31.44-82.016
			c1.997-5.206,6.679-8.827,12.218-9.452l214.328-24.123L591.782,170.331z"/>
		<path fill="#3676E6" d="M640.488,1105.153c0,2.157,1.109,4.099,2.968,5.198c1.859,1.095,4.095,1.125,5.986,0.087l187.609-103.49
			c1.924-1.063,3.12-3.088,3.12-5.287V183.702c0-3.53-1.905-6.809-4.971-8.556L663.751,77.502c-0.922-0.525-1.952-0.792-2.988-0.792
			c-0.687,0-1.377,0.118-2.039,0.356c-1.66,0.595-2.972,1.882-3.602,3.53l-35.257,92.427c-0.942,2.471-0.185,5.237,1.889,6.881
			l74.14,58.823c2.05,1.627,3.195,4.158,3.061,6.769l-14.245,281.357c-0.071,1.424-0.52,2.809-1.3,4.008l-72.558,111.78
			c-0.831,1.278-1.05,2.848-0.603,4.306l29.882,97.268c0.238,0.768,0.358,1.568,0.358,2.383V1105.153z"/>
		<path fill="#050766" d="M642.398,1112.141c1.286,0.76,2.703,1.14,4.125,1.14c1.343,0,2.689-0.339,3.923-1.022l187.609-103.49
			c2.588-1.428,4.197-4.152,4.197-7.107V183.702c0-4.276-2.307-8.247-6.023-10.363L664.778,75.694
			c-2.062-1.174-4.522-1.384-6.758-0.587c-2.232,0.801-3.995,2.531-4.841,4.747l-35.257,92.426c-1.27,3.323-0.25,7.042,2.539,9.252
			l74.14,58.823c1.523,1.21,2.375,3.092,2.277,5.034l-14.245,281.357c-0.055,1.058-0.388,2.088-0.967,2.98l-72.557,111.78
			c-1.168,1.796-1.477,4.002-0.847,6.049l29.882,97.27c0.175,0.569,0.264,1.166,0.264,1.771v358.556
			C638.408,1108.054,639.899,1110.666,642.398,1112.141z M640.131,744.214l-29.882-97.268c-0.447-1.458-0.228-3.029,0.603-4.306
			l72.558-111.78c0.78-1.199,1.229-2.584,1.3-4.008l14.245-281.357c0.134-2.611-1.012-5.142-3.061-6.769l-74.14-58.823
			c-2.074-1.644-2.832-4.41-1.889-6.881l35.257-92.427c0.63-1.648,1.942-2.935,3.602-3.53c0.662-0.238,1.353-0.356,2.039-0.356
			c1.036,0,2.066,0.267,2.988,0.792l171.451,97.645c3.065,1.747,4.971,5.025,4.971,8.556v817.959c0,2.2-1.196,4.225-3.12,5.287
			l-187.609,103.49c-1.891,1.038-4.128,1.008-5.986-0.087c-1.859-1.099-2.968-3.041-2.968-5.198V746.597
			C640.488,745.782,640.368,744.982,640.131,744.214z"/>
		<path fill="#3676E6" d="M477.537,555.579c-0.095-0.316-0.231-0.606-0.395-0.874c0.377,1.893-0.19,4.035-1.681,5.979
			c-2.052,2.681-5.292,4.278-8.176,4.278c-1.008,0-1.974-0.195-2.83-0.609c-0.181-0.088-0.335-0.206-0.502-0.312
			c0.36,0.494,0.83,0.905,1.426,1.193c3.039,1.475,7.881-0.272,10.583-3.796C477.466,559.473,478.055,557.283,477.537,555.579z"/>
		<path fill="#3676E6" d="M462.838,559.727c0.219,0.853,0.764,1.513,1.574,1.905c2.419,1.166,6.285-0.232,8.448-3.061
			c1.197-1.562,1.67-3.295,1.264-4.635c-0.282-0.93-0.965-1.605-1.972-1.95c-0.479-0.163-0.997-0.24-1.538-0.24
			c-2.334,0-5.064,1.448-6.671,3.703C462.915,556.893,462.513,558.451,462.838,559.727z"/>
		<path fill="#050766" d="M461.169,561.166c-0.043,0.726-0.016,1.44,0.156,2.113c0.435,1.696,1.552,3.055,3.149,3.827
			c1.014,0.489,2.159,0.723,3.358,0.723c3.443,0,7.321-1.918,9.783-5.129c1.936-2.531,2.634-5.346,1.913-7.725
			c-0.559-1.848-1.932-3.23-3.863-3.888c-0.457-0.157-0.938-0.254-1.427-0.322c-0.424-0.302-0.883-0.567-1.413-0.748
			c-3.406-1.158-8.058,0.693-10.575,4.225c-1.385,1.944-1.903,4.13-1.426,5.999C460.907,560.567,461.029,560.872,461.169,561.166z
			 M465.379,565.234c-0.596-0.288-1.066-0.699-1.426-1.193c0.167,0.105,0.321,0.224,0.502,0.312c0.855,0.414,1.822,0.609,2.83,0.609
			c2.884,0,6.124-1.597,8.176-4.278c1.491-1.944,2.058-4.086,1.681-5.979c0.164,0.268,0.299,0.558,0.395,0.874
			c0.518,1.704-0.071,3.894-1.574,5.858C473.261,564.961,468.418,566.708,465.379,565.234z M463.943,555.449
			c1.607-2.255,4.337-3.703,6.671-3.703c0.54,0,1.058,0.077,1.538,0.24c1.008,0.345,1.69,1.02,1.972,1.95
			c0.406,1.341-0.067,3.073-1.264,4.635c-2.163,2.83-6.029,4.227-8.448,3.061c-0.81-0.392-1.355-1.052-1.574-1.905
			C462.513,558.451,462.915,556.893,463.943,555.449z"/>
		<path fill="#3676E6" d="M496.452,559.085c-0.095-0.316-0.231-0.606-0.395-0.875c0.375,1.892-0.19,4.032-1.681,5.977
			c-2.051,2.681-5.294,4.28-8.176,4.28c-1.01,0-1.974-0.195-2.83-0.609c-0.181-0.088-0.336-0.207-0.502-0.312
			c0.36,0.494,0.83,0.904,1.426,1.193c3.039,1.475,7.881-0.272,10.583-3.799C496.379,562.979,496.968,560.789,496.452,559.085z"/>
		<path fill="#3676E6" d="M481.754,563.231c0.217,0.855,0.762,1.513,1.572,1.905c2.407,1.168,6.283-0.232,8.452-3.059
			c1.194-1.562,1.666-3.295,1.259-4.635c-0.282-0.93-0.963-1.605-1.97-1.948c-2.553-0.876-6.23,0.68-8.208,3.459
			C481.829,560.397,481.427,561.957,481.754,563.231z"/>
		<path fill="#050766" d="M479.739,563.747c0.083,0.325,0.205,0.629,0.345,0.922c-0.043,0.725-0.017,1.439,0.155,2.112
			c0.435,1.696,1.554,3.057,3.15,3.831c1.014,0.492,2.159,0.723,3.358,0.723c3.443,0,7.321-1.917,9.781-5.131
			c1.938-2.529,2.637-5.344,1.915-7.723c-0.561-1.848-1.934-3.232-3.866-3.89c-0.457-0.156-0.938-0.252-1.426-0.32
			c-0.423-0.301-0.882-0.566-1.411-0.747c-3.413-1.174-8.058,0.687-10.575,4.221C479.779,559.69,479.259,561.878,479.739,563.747z
			 M484.295,568.74c-0.596-0.289-1.066-0.699-1.426-1.193c0.167,0.105,0.321,0.224,0.502,0.312c0.855,0.414,1.82,0.609,2.83,0.609
			c2.882,0,6.124-1.599,8.176-4.28c1.491-1.945,2.056-4.085,1.681-5.977c0.164,0.269,0.299,0.559,0.395,0.875
			c0.516,1.704-0.073,3.894-1.574,5.856C492.176,568.467,487.334,570.214,484.295,568.74z M482.859,558.953
			c1.978-2.779,5.655-4.335,8.208-3.459c1.008,0.343,1.688,1.018,1.97,1.948c0.406,1.341-0.065,3.073-1.259,4.635
			c-2.169,2.828-6.045,4.227-8.452,3.059c-0.81-0.392-1.355-1.05-1.572-1.905C481.427,561.957,481.829,560.397,482.859,558.953z"/>
		<path fill="#3676E6" d="M515.367,562.591c-0.096-0.316-0.232-0.607-0.397-0.876c0.377,1.892-0.188,4.033-1.679,5.977
			c-2.052,2.681-5.293,4.28-8.178,4.28c-1.01,0-1.974-0.195-2.83-0.609c-0.181-0.088-0.335-0.207-0.502-0.312
			c0.36,0.494,0.83,0.905,1.426,1.193c3.037,1.469,7.881-0.27,10.583-3.799C515.292,566.483,515.881,564.293,515.367,562.591z"/>
		<path fill="#3676E6" d="M500.667,566.737c0.219,0.853,0.764,1.513,1.574,1.905c2.409,1.168,6.281-0.232,8.448-3.061
			c1.196-1.562,1.67-3.295,1.263-4.635c-0.282-0.93-0.965-1.605-1.972-1.95c-0.479-0.163-0.997-0.24-1.538-0.24
			c-2.334,0-5.064,1.448-6.671,3.703C500.744,563.903,500.342,565.461,500.667,566.737z"/>
		<path fill="#050766" d="M498.652,567.251c0.083,0.326,0.206,0.632,0.346,0.926c-0.043,0.726-0.017,1.44,0.156,2.113
			c0.435,1.696,1.552,3.055,3.149,3.827c1.014,0.489,2.159,0.723,3.358,0.723c3.443,0,7.321-1.918,9.781-5.131
			c1.938-2.529,2.637-5.342,1.917-7.721c-0.56-1.85-1.934-3.232-3.867-3.894c-0.456-0.155-0.936-0.25-1.423-0.316
			c-0.424-0.302-0.884-0.569-1.415-0.75c-3.409-1.156-8.056,0.693-10.575,4.225C498.693,563.196,498.175,565.382,498.652,567.251z
			 M503.208,572.244c-0.596-0.288-1.066-0.699-1.426-1.193c0.167,0.105,0.32,0.224,0.502,0.312c0.855,0.414,1.82,0.609,2.83,0.609
			c2.884,0,6.126-1.599,8.178-4.28c1.491-1.943,2.056-4.084,1.679-5.977c0.165,0.269,0.3,0.56,0.397,0.876
			c0.514,1.702-0.075,3.892-1.576,5.854C511.089,571.974,506.245,573.712,503.208,572.244z M501.772,562.459
			c1.607-2.255,4.337-3.703,6.671-3.703c0.54,0,1.058,0.077,1.538,0.24c1.008,0.345,1.69,1.02,1.972,1.95
			c0.406,1.341-0.067,3.073-1.263,4.635c-2.168,2.83-6.039,4.229-8.448,3.061c-0.81-0.392-1.355-1.052-1.574-1.905
			C500.342,565.461,500.744,563.903,501.772,562.459z"/>
		<path fill="#3676E6" d="M480.527,574.964c-0.095-0.316-0.23-0.606-0.395-0.875c0.375,1.892-0.191,4.03-1.681,5.975
			c-2.054,2.681-5.295,4.28-8.18,4.28c-1.007,0-1.972-0.197-2.828-0.609c-0.181-0.087-0.334-0.206-0.5-0.31
			c0.36,0.494,0.83,0.904,1.424,1.192c3.037,1.471,7.879-0.272,10.585-3.799C480.454,578.855,481.043,576.668,480.527,574.964z"/>
		<path fill="#050766" d="M482.517,574.362c-0.559-1.851-1.932-3.234-3.868-3.896c-0.455-0.154-0.933-0.248-1.42-0.314
			c-0.425-0.303-0.886-0.57-1.418-0.752c-3.413-1.158-8.058,0.691-10.575,4.223c-1.385,1.944-1.903,4.13-1.426,5.998
			c0.083,0.326,0.206,0.633,0.346,0.927c-0.043,0.725-0.016,1.437,0.155,2.11c0.435,1.696,1.552,3.057,3.149,3.831
			c1.014,0.49,2.159,0.723,3.358,0.723c3.441,0,7.323-1.917,9.783-5.131C482.54,579.554,483.239,576.739,482.517,574.362z
			 M468.367,584.616c-0.595-0.288-1.064-0.698-1.424-1.192c0.166,0.105,0.319,0.223,0.5,0.31c0.855,0.412,1.82,0.609,2.828,0.609
			c2.885,0,6.126-1.599,8.18-4.28c1.491-1.945,2.056-4.083,1.681-5.975c0.164,0.269,0.299,0.559,0.395,0.875
			c0.516,1.704-0.073,3.892-1.574,5.854C476.247,584.344,471.404,586.087,468.367,584.616z M466.931,574.829
			c1.607-2.255,4.335-3.701,6.669-3.701c0.54,0,1.062,0.077,1.542,0.242c1.008,0.343,1.688,1.018,1.97,1.948
			c0.406,1.341-0.065,3.073-1.263,4.635c-2.167,2.83-6.035,4.235-8.448,3.059c-0.81-0.392-1.355-1.052-1.574-1.905
			C465.501,577.832,465.904,576.274,466.931,574.829z"/>
		<path fill="#3676E6" d="M465.826,579.107c0.219,0.853,0.764,1.513,1.574,1.905c2.413,1.176,6.281-0.229,8.448-3.059
			c1.198-1.562,1.67-3.295,1.263-4.635c-0.282-0.93-0.963-1.605-1.97-1.948c-0.479-0.164-1.001-0.242-1.542-0.242
			c-2.334,0-5.062,1.446-6.669,3.701C465.904,576.274,465.501,577.832,465.826,579.107z"/>
		<path fill="#3676E6" d="M499.44,578.466c-0.095-0.315-0.23-0.605-0.394-0.873c0.377,1.893-0.19,4.034-1.681,5.978
			c-2.052,2.681-5.292,4.278-8.174,4.278c-1.011,0-1.976-0.195-2.832-0.609c-0.181-0.088-0.335-0.206-0.501-0.311
			c0.36,0.494,0.83,0.905,1.426,1.193c3.033,1.467,7.879-0.272,10.583-3.796C499.367,582.359,499.956,580.17,499.44,578.466z"/>
		<path fill="#050766" d="M501.431,577.862c-0.561-1.848-1.934-3.23-3.866-3.888c-0.455-0.155-0.932-0.249-1.418-0.317
			c-0.426-0.304-0.887-0.572-1.42-0.754c-3.404-1.16-8.06,0.691-10.575,4.225c-1.385,1.944-1.903,4.13-1.426,6.001
			c0.083,0.325,0.205,0.63,0.345,0.924c-0.043,0.726-0.016,1.44,0.156,2.113c0.435,1.696,1.552,3.055,3.149,3.827
			c1.014,0.492,2.159,0.723,3.358,0.723c3.443,0,7.321-1.918,9.783-5.129C501.453,583.056,502.152,580.241,501.431,577.862z
			 M487.283,588.12c-0.596-0.288-1.066-0.699-1.426-1.193c0.166,0.105,0.32,0.224,0.501,0.311c0.855,0.414,1.82,0.609,2.832,0.609
			c2.882,0,6.122-1.597,8.174-4.278c1.491-1.944,2.058-4.085,1.681-5.978c0.164,0.268,0.299,0.558,0.394,0.873
			c0.516,1.704-0.073,3.894-1.574,5.858C495.162,587.848,490.316,589.587,487.283,588.12z M485.847,578.335
			c1.979-2.781,5.655-4.333,8.208-3.463c1.008,0.345,1.69,1.02,1.972,1.95c0.406,1.341-0.067,3.073-1.261,4.635
			c-2.167,2.826-6.039,4.229-8.452,3.061c-0.811-0.392-1.353-1.052-1.572-1.905C484.415,581.338,484.819,579.78,485.847,578.335z"/>
		<path fill="#3676E6" d="M484.742,582.613c0.219,0.853,0.762,1.513,1.572,1.905c2.413,1.168,6.285-0.236,8.452-3.061
			c1.194-1.562,1.668-3.295,1.261-4.635c-0.282-0.93-0.965-1.605-1.972-1.95c-2.553-0.869-6.23,0.682-8.208,3.463
			C484.819,579.78,484.415,581.338,484.742,582.613z"/>
		<path fill="#3676E6" d="M518.355,581.971c-0.096-0.316-0.23-0.606-0.395-0.874c0.374,1.892-0.191,4.032-1.681,5.977
			c-2.054,2.681-5.296,4.28-8.18,4.28c-1.008,0-1.972-0.197-2.828-0.609c-0.181-0.087-0.334-0.206-0.5-0.311
			c0.36,0.494,0.83,0.905,1.424,1.192c3.037,1.469,7.881-0.27,10.585-3.799C518.282,585.865,518.871,583.676,518.355,581.971z"/>
		<path fill="#050766" d="M515.059,577.161c-0.425-0.303-0.886-0.571-1.418-0.753c-3.411-1.156-8.058,0.693-10.573,4.225
			c-1.385,1.944-1.905,4.132-1.426,6c0.083,0.325,0.205,0.629,0.345,0.922c-0.043,0.725-0.017,1.439,0.155,2.112
			c0.435,1.696,1.552,3.057,3.149,3.831c1.016,0.492,2.159,0.723,3.358,0.723c3.443,0,7.323-1.917,9.783-5.131
			c1.938-2.529,2.637-5.344,1.916-7.723c-0.561-1.849-1.934-3.232-3.865-3.89C516.025,577.323,515.546,577.228,515.059,577.161z
			 M506.196,591.626c-0.595-0.288-1.065-0.698-1.424-1.192c0.166,0.105,0.319,0.223,0.5,0.311c0.855,0.412,1.82,0.609,2.828,0.609
			c2.884,0,6.126-1.599,8.18-4.28c1.49-1.944,2.056-4.085,1.681-5.977c0.164,0.268,0.299,0.558,0.395,0.874
			c0.516,1.704-0.073,3.894-1.574,5.856C514.077,591.356,509.233,593.095,506.196,591.626z M504.762,581.839
			c1.979-2.779,5.661-4.325,8.206-3.463c1.009,0.345,1.69,1.02,1.972,1.952c0.406,1.341-0.065,3.073-1.263,4.635
			c-2.163,2.828-6.031,4.225-8.448,3.059c-0.811-0.392-1.355-1.05-1.572-1.905C503.33,584.844,503.732,583.284,504.762,581.839z"/>
		<path fill="#3676E6" d="M503.657,586.117c0.217,0.855,0.762,1.513,1.572,1.905c2.417,1.166,6.285-0.232,8.448-3.059
			c1.198-1.562,1.67-3.295,1.263-4.635c-0.282-0.932-0.963-1.607-1.972-1.952c-2.545-0.861-6.228,0.685-8.206,3.463
			C503.732,583.284,503.33,584.844,503.657,586.117z"/>
		<path fill="#3676E6" d="M431.957,563.692c0.27,1.054,0.943,1.869,1.942,2.352c2.903,1.406,7.538-0.264,10.126-3.642
			c1.438-1.877,2.003-3.967,1.511-5.594c-0.349-1.15-1.188-1.981-2.425-2.403c-1.089-0.375-2.393-0.371-3.752-0.033l1.857,2.654
			c0.65,0.815,0.955,1.938,0.794,3.035c-0.16,1.095-0.774,2.088-1.684,2.72c-0.683,0.475-1.471,0.721-2.281,0.721
			c-0.264,0-0.53-0.026-0.796-0.081c-1.081-0.215-2.003-0.843-2.596-1.771l-1.76-2.465
			C431.974,560.73,431.611,562.338,431.957,563.692z"/>
		<path fill="#3676E6" d="M422.156,545.876c4.53,0,8.217-3.687,8.217-8.217c0-4.532-3.687-8.219-8.217-8.219
			c-4.532,0-8.219,3.687-8.219,8.219C413.937,542.189,417.624,545.876,422.156,545.876z"/>
		<path fill="#050766" d="M478.305,801.88l27.256,7.508c0.351,0.095,0.709,0.144,1.064,0.144c0.843,0,1.67-0.272,2.367-0.792
			c0.989-0.739,1.57-1.871,1.595-3.106l0.747-40.236c0.032-1.769-1.125-3.362-2.815-3.874l-28.003-8.509
			c-1.215-0.368-2.499-0.148-3.518,0.607c-1.022,0.758-1.607,1.92-1.607,3.191v41.237
			C475.39,799.833,476.588,801.407,478.305,801.88z M477.47,756.814c0-0.605,0.278-1.16,0.764-1.519
			c0.331-0.246,0.721-0.372,1.119-0.372c0.185,0,0.374,0.026,0.557,0.083l28.003,8.509c0.806,0.244,1.357,1.001,1.341,1.842
			l-0.747,40.236c-0.01,0.589-0.288,1.129-0.76,1.481c-0.469,0.351-1.062,0.465-1.633,0.307l-27.256-7.508
			c-0.817-0.224-1.387-0.973-1.387-1.822V756.814z"/>
		<path fill="#050766" d="M481.833,796.881l11.3,3.492c0.152,0.047,0.307,0.069,0.461,0.069c0.327,0,0.65-0.102,0.92-0.299
			c0.396-0.291,0.634-0.752,0.64-1.245l0.353-32.464c0.008-0.705-0.459-1.328-1.14-1.519l-11.653-3.258
			c-0.471-0.132-0.975-0.033-1.363,0.26c-0.39,0.294-0.617,0.756-0.617,1.243v32.23
			C480.734,796.075,481.179,796.678,481.833,796.881z"/>
		<path fill="#050766" d="M501.508,801.99c0.861,0,1.56-0.699,1.56-1.56v-30.821c0-0.861-0.699-1.56-1.56-1.56
			c-0.861,0-1.56,0.699-1.56,1.56v30.821C499.948,801.291,500.647,801.99,501.508,801.99z"/>
		<path fill="#050766" d="M521.526,813.016l27.227,7.5c0.315,0.085,0.634,0.128,0.951,0.128c0.756,0,1.495-0.242,2.121-0.709
			c0.884-0.66,1.404-1.674,1.424-2.779l0.739-39.893c0.031-1.58-1.003-3.004-2.517-3.465l-27.969-8.499
			c-1.089-0.329-2.236-0.13-3.148,0.546c-0.912,0.677-1.436,1.716-1.436,2.852v40.894
			C518.918,811.184,519.991,812.591,521.526,813.016z M520.998,768.697c0-0.471,0.217-0.902,0.595-1.182
			c0.258-0.191,0.563-0.291,0.873-0.291c0.142,0,0.288,0.022,0.431,0.065l27.969,8.499c0.626,0.191,1.056,0.78,1.042,1.436
			l-0.739,39.892c-0.008,0.459-0.223,0.878-0.589,1.152c-0.37,0.274-0.835,0.361-1.274,0.24l-27.227-7.5
			c-0.636-0.175-1.081-0.758-1.081-1.418V768.697z"/>
		<path fill="#050766" d="M525.211,808.228l11.008,3.4c0.152,0.047,0.307,0.069,0.461,0.069c0.327,0,0.65-0.102,0.92-0.301
			c0.396-0.289,0.634-0.75,0.64-1.243l0.343-31.623c0.008-0.705-0.461-1.329-1.14-1.519l-11.351-3.171
			c-0.469-0.132-0.975-0.032-1.363,0.26c-0.39,0.295-0.617,0.756-0.617,1.243v31.394
			C524.112,807.422,524.557,808.025,525.211,808.228z"/>
		<path fill="#050766" d="M544.388,813.205c0.861,0,1.56-0.699,1.56-1.56v-30.02c0-0.861-0.699-1.56-1.56-1.56
			c-0.861,0-1.56,0.699-1.56,1.56v30.02C542.828,812.506,543.527,813.205,544.388,813.205z"/>
		<path fill="#050766" d="M478.305,831.531l27.256,7.508c0.351,0.095,0.709,0.144,1.062,0.144c0.845,0,1.672-0.272,2.369-0.792
			c0.989-0.739,1.57-1.871,1.593-3.075l0.75-15.306c0.032-1.769-1.125-3.362-2.815-3.874l-28.003-8.511
			c-1.221-0.374-2.501-0.148-3.518,0.609c-1.022,0.756-1.607,1.92-1.607,3.191v16.277
			C475.39,829.482,476.588,831.056,478.305,831.531z M507.913,818.127c0.806,0.244,1.357,1.001,1.343,1.812l-0.712,14.549
			l-26.706-7.356c-0.816-0.225-1.387-0.975-1.387-1.822V809.78L507.913,818.127z M477.47,811.425c0-0.605,0.278-1.16,0.766-1.521
			c0.042-0.031,0.091-0.043,0.134-0.07v15.475c0,1.779,1.198,3.354,2.915,3.829l26.666,7.345c-0.074,0.077-0.117,0.176-0.205,0.242
			c-0.469,0.351-1.068,0.465-1.633,0.307l-27.256-7.508c-0.817-0.226-1.387-0.975-1.387-1.822V811.425z"/>
		<path fill="#050766" d="M521.526,842.665l27.227,7.497c0.315,0.087,0.636,0.132,0.953,0.132c0.754,0,1.493-0.244,2.116-0.709
			c0.886-0.66,1.406-1.674,1.424-2.748l0.741-14.962c0.031-1.58-1.003-3.004-2.517-3.465l-27.969-8.499
			c-1.089-0.325-2.236-0.132-3.148,0.546c-0.912,0.677-1.436,1.717-1.436,2.852v15.931
			C518.918,840.832,519.991,842.24,521.526,842.665z M551.91,831.803l-0.677,13.67l-26.172-7.209
			c-0.636-0.175-1.081-0.758-1.081-1.418V821.84l0.666,0.592l26.22,7.967C551.492,830.591,551.92,831.18,551.91,831.803z
			 M520.998,823.308c0-0.471,0.217-0.902,0.595-1.182c0.095-0.07,0.201-0.115,0.307-0.16v14.88c0,1.593,1.073,3,2.608,3.425
			l26.391,7.269c-0.092,0.137-0.184,0.276-0.321,0.379c-0.368,0.274-0.835,0.362-1.272,0.238l-27.227-7.5
			c-0.636-0.175-1.081-0.758-1.081-1.418V823.308z"/>
		<path fill="#FAC505" d="M523.98,821.84v15.007c0,0.66,0.445,1.243,1.081,1.418l26.172,7.209l0.677-13.67
			c0.01-0.624-0.418-1.213-1.044-1.404l-26.22-7.967L523.98,821.84z"/>
	</g>
	<g>
		<path fill="#050766" d="M727.055,1044.616c-1.265,0-2.528-0.345-3.66-1.029c-2.143-1.294-3.422-3.562-3.422-6.064V967.1
			c0-2.642,1.452-5.046,3.791-6.275l90.137-47.368c2.216-1.165,4.818-1.089,6.957,0.205c2.145,1.294,3.424,3.562,3.424,6.066v70.424
			c0,2.642-1.452,5.046-3.791,6.275l-90.137,47.368C729.311,1044.344,728.182,1044.616,727.055,1044.616z M817.197,916.355
			c-0.535,0-1.072,0.129-1.568,0.39l-90.138,47.37c-1.11,0.584-1.802,1.728-1.802,2.985v70.424c0,1.19,0.608,2.268,1.628,2.883
			c1.018,0.617,2.254,0.65,3.31,0.1l90.137-47.37v-0.002c1.111-0.582,1.802-1.726,1.802-2.983v-70.424
			c0-1.19-0.608-2.27-1.628-2.885C818.398,916.518,817.8,916.355,817.197,916.355z"/>
		<path fill="#050766" d="M729.588,1035.418c-0.374,0-0.744-0.102-1.078-0.303c-0.628-0.381-1.002-1.045-1.002-1.778v-64.71
			c0-0.775,0.427-1.479,1.112-1.84l85.078-44.712c0.648-0.341,1.412-0.323,2.041,0.06c0.628,0.379,1.003,1.043,1.003,1.778v25.906
			c0,0.274-0.12,0.532-0.329,0.709c-0.207,0.178-0.481,0.256-0.753,0.207l-0.416-0.078c-0.412-0.082-0.769-0.154-1.096-0.1
			c-4.048,0.626-7.345,3.41-8.822,7.443c-1.25,3.411-0.914,6.93,0.851,8.962c1.401,1.615,3.609,2.157,6.393,1.559
			c0.523-0.111,1.029-0.167,1.519-0.22c0.526-0.056,1.023-0.111,1.461-0.24c0.278-0.082,0.584-0.029,0.818,0.147
			c0.236,0.174,0.374,0.45,0.374,0.744v19.67c0,0.775-0.426,1.479-1.112,1.84l-85.076,44.714
			C730.249,1035.339,729.918,1035.418,729.588,1035.418z M814.666,923.693c-0.031,0-0.065,0.007-0.103,0.027l-85.078,44.714
			c-0.073,0.038-0.118,0.114-0.118,0.194v64.71c0,0.102,0.058,0.16,0.105,0.189c0.053,0.029,0.131,0.056,0.22,0.005l85.076-44.712
			c0.073-0.038,0.118-0.114,0.118-0.196v-18.543c-0.2,0.027-0.399,0.047-0.597,0.069c-0.428,0.045-0.871,0.092-1.328,0.19l0,0
			c-3.43,0.737-6.34-0.033-8.184-2.157c-2.203-2.537-2.671-6.783-1.194-10.82c1.713-4.678,5.556-7.91,10.283-8.641
			c0.361-0.058,0.702-0.049,1.02-0.009v-24.799c0-0.102-0.058-0.158-0.105-0.187C814.751,923.709,814.711,923.693,814.666,923.693z"
			/>
		<circle fill="#050766" cx="813.937" cy="960.086" r="3.488"/>
	</g>
</g>
</svg>
